<?xml version="1.0" standalone="no"?>
<!DOCTYPE svg PUBLIC "-//W3C//DTD SVG 20010904//EN"
 "http://www.w3.org/TR/2001/REC-SVG-20010904/DTD/svg10.dtd">
<svg version="1.0" xmlns="http://www.w3.org/2000/svg"
 width="62.000000pt" height="121.000000pt" viewBox="0 0 62.000000 121.000000"
 preserveAspectRatio="xMidYMid meet">

<g transform="translate(0.000000,121.000000) scale(0.100000,-0.100000)"
fill="#000000" stroke="none">
<path d="M62 1170 l-52 -30 0 -195 0 -195 300 0 300 0 0 225 0 225 -247 0
-248 0 -53 -30z"/>
<path d="M165 689 c-40 -23 -45 -39 -45 -160 0 -110 2 -120 24 -146 l24 -28
175 -3 c260 -5 271 3 265 190 -5 157 3 152 -236 156 -125 1 -194 -2 -207 -9z"/>
<path d="M235 276 c-23 -23 -25 -32 -25 -124 0 -146 0 -146 180 -150 210 -5
220 2 220 158 0 134 0 134 -194 138 -155 3 -156 3 -181 -22z"/>
</g>
</svg>
