<?xml version="1.0" standalone="no"?>
<!DOCTYPE svg PUBLIC "-//W3C//DTD SVG 20010904//EN"
 "http://www.w3.org/TR/2001/REC-SVG-20010904/DTD/svg10.dtd">
<svg version="1.0" xmlns="http://www.w3.org/2000/svg"
 width="60.000000pt" height="120.000000pt" viewBox="0 0 60.000000 120.000000"
 preserveAspectRatio="xMidYMid meet">

<g transform="translate(0.000000,120.000000) scale(0.100000,-0.100000)"
fill="#000000" stroke="none">
<path d="M45 1191 l-40 -6 -3 -217 -2 -218 300 0 300 0 0 191 c0 111 -4 198
-10 210 -24 44 -56 49 -287 48 -120 -1 -236 -5 -258 -8z"/>
<path d="M45 689 c-40 -23 -45 -39 -45 -160 0 -110 2 -120 24 -146 l24 -28
175 -3 c260 -5 271 3 265 190 -5 157 3 152 -236 156 -125 1 -194 -2 -207 -9z"/>
<path d="M25 276 c-23 -23 -25 -32 -25 -124 0 -146 0 -146 180 -150 210 -5
220 2 220 158 0 134 0 134 -194 138 -155 3 -156 3 -181 -22z"/>
</g>
</svg>
