<?xml version="1.0" standalone="no"?>
<!DOCTYPE svg PUBLIC "-//W3C//DTD SVG 20010904//EN"
 "http://www.w3.org/TR/2001/REC-SVG-20010904/DTD/svg10.dtd">
<svg version="1.0" xmlns="http://www.w3.org/2000/svg"
 width="60.000000pt" height="120.000000pt" viewBox="0 0 60.000000 120.000000"
 preserveAspectRatio="xMidYMid meet">

<g transform="translate(0.000000,120.000000) scale(0.100000,-0.100000)"
fill="#000000" stroke="none">
<path d="M125 1176 c-23 -23 -25 -32 -25 -124 0 -146 0 -146 180 -150 210 -5
220 2 220 158 0 134 0 134 -194 138 -155 3 -156 3 -181 -22z"/>
<path d="M53 830 c-17 -10 -37 -28 -42 -39 -7 -12 -11 -90 -11 -195 0 -167 1
-176 22 -201 33 -37 79 -44 283 -45 192 0 234 6 272 42 22 21 23 26 23 205 0
203 -5 222 -62 242 -18 7 -117 11 -242 11 -191 0 -214 -2 -243 -20z"/>
<path d="M125 276 c-23 -23 -25 -32 -25 -124 0 -146 0 -146 180 -150 210 -5
220 2 220 158 0 134 0 134 -194 138 -155 3 -156 3 -181 -22z"/>
</g>
</svg>
