<?xml version="1.0" standalone="no"?>
<!DOCTYPE svg PUBLIC "-//W3C//DTD SVG 20010904//EN"
 "http://www.w3.org/TR/2001/REC-SVG-20010904/DTD/svg10.dtd">
<svg version="1.0" xmlns="http://www.w3.org/2000/svg"
 width="120.000000pt" height="120.000000pt" viewBox="0 0 120.000000 120.000000"
 preserveAspectRatio="xMidYMid meet">

<g transform="translate(0.000000,120.000000) scale(0.100000,-0.100000)"
fill="#000000" stroke="none">
<path d="M472 1177 c-20 -21 -22 -34 -22 -129 0 -103 1 -107 26 -127 23 -18
41 -21 126 -21 92 0 101 2 123 25 23 22 25 31 25 123 0 85 -3 103 -21 126 -20
25 -24 26 -128 26 -99 0 -109 -2 -129 -23z"/>
<path d="M395 816 c-40 -40 -45 -84 -45 -396 0 -312 5 -356 45 -396 24 -23 28
-24 204 -24 l179 0 26 31 c14 17 29 43 34 57 4 15 7 164 7 332 0 437 10 420
-252 420 -170 0 -174 -1 -198 -24z"/>
<path d="M22 777 c-20 -21 -22 -34 -22 -129 0 -103 1 -107 26 -127 23 -18 41
-21 126 -21 92 0 101 2 123 25 23 22 25 31 25 123 0 85 -3 103 -21 126 -20 25
-24 26 -128 26 -99 0 -109 -2 -129 -23z"/>
<path d="M922 777 c-20 -21 -22 -34 -22 -129 0 -103 1 -107 26 -127 23 -18 41
-21 126 -21 92 0 101 2 123 25 23 22 25 31 25 123 0 85 -3 103 -21 126 -20 25
-24 26 -128 26 -99 0 -109 -2 -129 -23z"/>
<path d="M22 277 c-20 -21 -22 -34 -22 -129 0 -103 1 -107 26 -127 23 -18 41
-21 126 -21 92 0 101 2 123 25 23 22 25 31 25 123 0 85 -3 103 -21 126 -20 25
-24 26 -128 26 -99 0 -109 -2 -129 -23z"/>
<path d="M922 277 c-20 -21 -22 -34 -22 -129 0 -103 1 -107 26 -127 23 -18 41
-21 126 -21 92 0 101 2 123 25 23 22 25 31 25 123 0 85 -3 103 -21 126 -20 25
-24 26 -128 26 -99 0 -109 -2 -129 -23z"/>
</g>
</svg>
