<?xml version="1.0" standalone="no"?>
<!DOCTYPE svg PUBLIC "-//W3C//DTD SVG 20010904//EN"
 "http://www.w3.org/TR/2001/REC-SVG-20010904/DTD/svg10.dtd">
<svg version="1.0" xmlns="http://www.w3.org/2000/svg"
 width="120.000000pt" height="120.000000pt" viewBox="0 0 120.000000 120.000000"
 preserveAspectRatio="xMidYMid meet">

<g transform="translate(0.000000,120.000000) scale(0.100000,-0.100000)"
fill="#000000" stroke="none">
<path d="M163 1070 c-13 -5 -23 -7 -23 -3 0 3 -9 -2 -20 -12 -18 -16 -20 -31
-20 -126 0 -104 1 -108 26 -128 18 -14 41 -21 70 -21 l43 0 -15 -42 c-25 -70
-28 -155 -10 -228 9 -35 22 -68 29 -72 7 -4 -13 -8 -44 -8 -45 0 -60 -4 -77
-23 -20 -21 -22 -34 -22 -129 0 -103 1 -107 26 -127 23 -18 41 -21 126 -21 92
0 101 2 123 25 19 18 25 35 25 66 0 34 3 39 14 30 66 -55 314 -51 371 5 13 14
15 11 15 -35 0 -42 4 -53 26 -70 23 -18 41 -21 126 -21 92 0 101 2 123 25 23
22 25 31 25 123 0 85 -3 103 -21 126 -17 22 -28 26 -74 26 l-53 0 19 61 c24
77 24 151 0 228 l-19 61 50 0 c39 0 54 5 73 25 23 22 25 31 25 123 0 85 -3
103 -21 126 -20 25 -24 26 -128 26 -99 0 -109 -2 -129 -23 -16 -17 -22 -36
-22 -69 l0 -45 -52 26 c-79 39 -202 42 -287 8 l-61 -25 0 38 c0 23 -8 48 -21
64 -19 25 -25 26 -107 25 -48 0 -97 -4 -109 -9z"/>
</g>
</svg>
